# xmcd
#
# Track frame offsets: 
#        150
#        21395
#        37563
#        52476
#        70090
#        87718
#        101692
#        121380
#        135108
#        152361
#        170280
#        189629
#
# Disc length: 2637 seconds
#
# Revision: 0
# Processed by: cddbd v1.5.2PL0 Copyright (c) Steve Scherf et al.
# Submitted via: ExactAudioCopy v1.0b1
#
DISCID=990a4b0c
DTITLE=Kenny Rogers - Faith
DYEAR=2012
DGENRE=Country
TTITLE0=Will The Circle Be Unbroken
TTITLE1=Peace
TTITLE2=I'll Fly Away (Feat. The Whites)
TTITLE3=The Rock Of Your Love
TTITLE4=In The Sweet By And By (Feat. Winfield's Locket)
TTITLE5=He Showed Me Love
TTITLE6=Grace
TTITLE7=What A Friend We Have In Jesus
TTITLE8=Circle Of Friends (Feat. Point Of Grace)
TTITLE9=For The Love of God
TTITLE10=Amazing Grace
TTITLE11=Leaning On The Everlasting Arms
EXTD=
EXTT0=
EXTT1=
EXTT2=
EXTT3=
EXTT4=
EXTT5=
EXTT6=
EXTT7=
EXTT8=
EXTT9=
EXTT10=
EXTT11=
PLAYORDER=
